<svg id="Dashabord-icon" xmlns="http://www.w3.org/2000/svg" width="20" height="20" viewBox="0 0 20 20">
  <g id="Group_54234" data-name="Group 54234">
    <path id="Rectangle_5513" data-name="Rectangle 5513" d="M1.969,1.969v5.25h5.25V1.969H1.969M1.313,0H7.875A1.313,1.313,0,0,1,9.188,1.313V7.875A1.313,1.313,0,0,1,7.875,9.188H1.313A1.313,1.313,0,0,1,0,7.875V1.313A1.313,1.313,0,0,1,1.313,0Z" fill="#494949"/>
    <path id="Rectangle_5516" data-name="Rectangle 5516" d="M1.969,1.969v5.25h5.25V1.969H1.969M1.313,0H7.875A1.313,1.313,0,0,1,9.188,1.313V7.875A1.313,1.313,0,0,1,7.875,9.188H1.313A1.313,1.313,0,0,1,0,7.875V1.313A1.313,1.313,0,0,1,1.313,0Z" transform="translate(0 10.813)" fill="#494949"/>
    <path id="Rectangle_5514" data-name="Rectangle 5514" d="M1.969,1.969v5.25h5.25V1.969H1.969M1.313,0H7.875A1.313,1.313,0,0,1,9.188,1.313V7.875A1.313,1.313,0,0,1,7.875,9.188H1.313A1.313,1.313,0,0,1,0,7.875V1.313A1.313,1.313,0,0,1,1.313,0Z" transform="translate(10.813)" fill="#494949"/>
    <path id="Rectangle_5515" data-name="Rectangle 5515" d="M1.969,1.969v5.25h5.25V1.969H1.969M1.313,0H7.875A1.313,1.313,0,0,1,9.188,1.313V7.875A1.313,1.313,0,0,1,7.875,9.188H1.313A1.313,1.313,0,0,1,0,7.875V1.313A1.313,1.313,0,0,1,1.313,0Z" transform="translate(10.813 10.813)" fill="#494949"/>
  </g>
</svg>
