<svg id="event-icon" xmlns="http://www.w3.org/2000/svg" width="24.389" height="26" viewBox="0 0 24.389 26">
  <path id="Path_49581" data-name="Path 49581" d="M7.125-19.875A1.122,1.122,0,0,0,6-21a1.122,1.122,0,0,0-1.125,1.125V-18H3a3,3,0,0,0-3,3V-1A3,3,0,0,0,3,2H18a3,3,0,0,0,3-3V-15a3,3,0,0,0-3-3H16.125v-1.875A1.122,1.122,0,0,0,15-21a1.122,1.122,0,0,0-1.125,1.125V-18H7.125ZM1.25-13h18.5V0A.752.752,0,0,1,19,.75H2A.752.752,0,0,1,1.25,0Z" transform="translate(0 21)" fill="#4a4a4a"/>
  <path id="Path_49572" data-name="Path 49572" d="M25.366,8.4v13.75a3.858,3.858,0,0,1-3.929,3.929H6.9c0,1.44-.18,1.26,1.26,1.26H21.388A5.253,5.253,0,0,0,26.626,22.1V9.662C26.626,8.222,26.806,8.4,25.366,8.4Z" transform="translate(-2.244 -1.348)" fill="#494949"/>
  <path id="Path_49580" data-name="Path 49580" d="M15.06,17.9l-2.926-1.707L9.329,17.9l.732-3.292L7.5,12.414l3.414-.244L12.255,9,13.6,12.048l3.414.366L14.45,14.609Z" transform="translate(0.73 0.869)" fill="#494949"/>
</svg>
