<svg xmlns="http://www.w3.org/2000/svg" width="194" height="63.423" viewBox="0 0 194 63.423">
  <g id="Group_6243" data-name="Group 6243" transform="translate(-92 -149)">
    <path id="Path_16254" data-name="Path 16254" d="M23.779,20.351C19.473,25.163,12.465,27.394,5.742,29.4,0,31.111-2.459,23.834,3.219,22.147l.788-.235c4.049-1.2,8.537-2.538,11.36-5.212,3.641-3.45,2.723-7.929,1.689-12-1.2-4.729,7.948-6.734,9.161-2,1.53,6.015,2.28,12.365-2.438,17.645M30.51,30.642c-9.733,3.955-28.3,12.365-18.9,23.219,3.44,3.963-4.6,7.718-8,3.788-5.15-5.941-4.521-13.775.2-19.765C8.985,31.31,17.461,27.555,25.834,24.16,31.159,22,35.845,28.481,30.51,30.642" transform="translate(92 149)" fill="#e63946" fill-rule="evenodd"/>
    <path id="Path_16255" data-name="Path 16255" d="M252.277,47.974V37.659h9.71V47.974h5.5V22.359h-5.5V32.466h-9.71V22.359h-5.5V47.974Z" transform="translate(-109.243 131.233)" fill="#1d3557"/>
    <path id="Path_16256" data-name="Path 16256" d="M372.242,78.421c2.546,0,4.787-1.142,5.33-2.735l.339,2.285h4.617V67.864c0-4.95-2.784-7.754-7.707-7.754-4.855,0-8.012,2.562-8.012,6.473h4.346c0-1.558,1.188-2.423,3.4-2.423,1.867,0,2.886.9,2.886,2.6v.277l-4.753.381c-4.074.312-6.281,2.285-6.281,5.469,0,3.392,2.241,5.538,5.84,5.538m1.833-3.946c-1.6,0-2.343-.588-2.343-1.835,0-1.108.815-1.627,3.089-1.835l2.648-.242V71.5c0,1.973-1.392,2.977-3.4,2.977" transform="translate(-206.618 99.7)" fill="#1d3557"/>
    <path id="Path_16257" data-name="Path 16257" d="M474.857,61.869a8.511,8.511,0,0,0-2-.242,4.549,4.549,0,0,0-4.482,2.838L468.1,61.9h-4.923V79.176h5.229V71.665c0-3.427,1.8-4.777,4.787-4.777h1.664Z" transform="translate(-285.283 98.479)" fill="#1d3557"/>
    <path id="Path_16258" data-name="Path 16258" d="M537.838,46.1l.272-2.215a6.061,6.061,0,0,0,5.33,2.665c4.821,0,8.182-3.565,8.182-8.931,0-5.642-3.022-9.415-7.775-9.415a6.859,6.859,0,0,0-5.7,2.6V20h-5.228V46.1Zm.34-8.757a4.025,4.025,0,0,1,4.142-4.327c2.479,0,4.04,1.765,4.04,4.327s-1.562,4.327-4.04,4.327a4.025,4.025,0,0,1-4.142-4.327" transform="translate(-342.47 133.108)" fill="#1d3557"/>
    <path id="Path_16259" data-name="Path 16259" d="M639.654,26.226a2.993,2.993,0,0,0,2.954-3.046,2.971,2.971,0,1,0-5.941,0,3,3,0,0,0,2.988,3.046m-2.58,20.007H642.3V28.926h-5.228Z" transform="translate(-426.247 132.974)" fill="#1d3557"/>
    <path id="Path_16260" data-name="Path 16260" d="M688.432,77.971V68.487a3.242,3.242,0,0,1,3.4-3.531c1.8,0,2.988,1.419,2.988,3.6v9.415h5.229v-10.7c0-4.534-2.343-7.165-6.383-7.165a6.243,6.243,0,0,0-5.194,2.354l-.339-1.8H683.2V77.971Z" transform="translate(-464.863 99.713)" fill="#1d3557"/>
    <path id="Path_16261" data-name="Path 16261" d="M779.055,68.873c0,5.192,3.293,8.757,8.045,8.757a6.606,6.606,0,0,0,5.127-2.042v2.25a3.762,3.762,0,0,1-4.108,3.981c-2.309,0-3.734-1.142-3.837-3.081h-5.3c.475,4.915,3.972,7.927,9.167,7.927,5.806,0,9.3-3.738,9.3-9.934V60.53h-4.923l-.271,1.731a5.83,5.83,0,0,0-5.059-2.319c-4.787,0-8.148,3.669-8.148,8.931m5.262-.138a3.96,3.96,0,1,1,7.91,0c0,2.561-1.594,4.257-3.972,4.257a3.942,3.942,0,0,1-3.937-4.257" transform="translate(-543.066 99.539)" fill="#1d3557"/>
    <path id="Path_16262" data-name="Path 16262" d="M892.385,78.421c4.65,0,8.012-2.458,8.622-6.3h-4.788c-.372,1.246-1.764,1.973-3.734,1.973-2.309,0-3.565-1.073-3.87-3.358l12.323-.069v-1.35c0-5.642-3.327-9.208-8.657-9.208-5.127,0-8.692,3.773-8.692,9.173,0,5.331,3.666,9.138,8.795,9.138m-.07-13.984c2.105,0,3.43,1.177,3.43,3.011h-7.061a3.287,3.287,0,0,1,3.631-3.011" transform="translate(-629.715 99.7)" fill="#1d3557"/>
    <path id="Path_16263" data-name="Path 16263" d="M994.818,61.869a8.514,8.514,0,0,0-2-.242,4.548,4.548,0,0,0-4.482,2.838l-.273-2.562H983.14V79.176h5.227V71.665c0-3.427,1.8-4.777,4.788-4.777h1.664Z" transform="translate(-708.818 98.479)" fill="#1d3557"/>
    <path id="Path_16264" data-name="Path 16264" d="M252.7,178.078c2.614,0,4.923,1.177,5.568,3.877h5.772c-.577-5.538-5.195-9.138-11.2-9.138-7.775,0-12.834,5.573-12.834,13.292,0,7.858,4.923,13.119,11.951,13.119,2.988,0,5.7-1.073,7.062-2.7l.306,2.319h4.719V184.136H252.223v4.915h6.654c-.238,2.665-2.071,4.95-6.213,4.95-4.006,0-6.858-2.561-6.858-7.719,0-4.95,2.342-8.2,6.892-8.2" transform="translate(-103.805 5.269)" fill="#1d3557"/>
    <path id="Path_16265" data-name="Path 16265" d="M387.686,214.349a8.511,8.511,0,0,0-2-.242,4.549,4.549,0,0,0-4.482,2.838l-.272-2.561h-4.923v17.273h5.229v-7.511c0-3.427,1.8-4.777,4.787-4.777h1.664Z" transform="translate(-214.277 -27.541)" fill="#1d3557"/>
    <path id="Path_16266" data-name="Path 16266" d="M438.859,221.9c0,5.469,3.938,9.1,9.371,9.1,5.4,0,9.337-3.635,9.337-9.1s-3.938-9.138-9.337-9.138c-5.432,0-9.371,3.669-9.371,9.138m5.262-.035a4.1,4.1,0,1,1,8.182,0c0,2.631-1.664,4.361-4.074,4.361a4.01,4.01,0,0,1-4.108-4.361" transform="translate(-265.789 -26.47)" fill="#1d3557"/>
    <path id="Path_16267" data-name="Path 16267" d="M553.245,215.287v9c0,2.838-.917,4.015-3.157,4.015-2.139,0-3.089-1.246-3.089-4.085v-8.931H541.77v10.869c0,4.258,2.377,6.888,6.247,6.888a6.716,6.716,0,0,0,5.194-2.388l.339,1.938h4.923V215.287Z" transform="translate(-349.576 -28.479)" fill="#1d3557"/>
    <path id="Path_16268" data-name="Path 16268" d="M642.2,238.759h5.229V228.721c.984,1.315,3.157,2.215,5.5,2.215,5.059,0,7.979-3.946,7.979-9.415,0-5.573-3.293-8.93-8.013-8.93a6.374,6.374,0,0,0-5.5,2.665l-.272-2.112H642.2Zm5.263-16.961a4.025,4.025,0,0,1,4.142-4.327c2.478,0,4.04,1.766,4.04,4.327s-1.562,4.327-4.04,4.327a4.025,4.025,0,0,1-4.142-4.327" transform="translate(-431.568 -26.336)" fill="#1d3557"/>
  </g>
</svg>
