<svg id="mycourse-icon" xmlns="http://www.w3.org/2000/svg" width="17.857" height="20" viewBox="0 0 17.857 20">
  <path id="Path_50797" data-name="Path 50797" d="M1.026-1H11.831a2.089,2.089,0,0,1,2.026,2.143V16.857A2.089,2.089,0,0,1,11.831,19H1.026A2.089,2.089,0,0,1-1,16.857V1.143A2.089,2.089,0,0,1,1.026-1ZM11.831,17.572a.7.7,0,0,0,.675-.714V1.143a.7.7,0,0,0-.675-.714H1.026a.7.7,0,0,0-.675.714V16.857a.7.7,0,0,0,.675.714Z" transform="translate(4 1)" fill="#494949"/>
  <path id="Path_15934" data-name="Path 15934" d="M1391,172.067a1,1,0,0,1-1-1V168a1,1,0,0,1,2,0v3.067A1,1,0,0,1,1391,172.067Z" transform="translate(-1378.371 -163.006)" fill="#494949"/>
  <path id="Path_15935" data-name="Path 15935" d="M1386.133,170H1380a1,1,0,0,1,0-2h6.133a1,1,0,0,1,0,2Z" transform="translate(-1379 -162.691)" fill="#494949"/>
  <path id="Path_15936" data-name="Path 15936" d="M1386.133,174H1380a1,1,0,0,1,0-2h6.133a1,1,0,0,1,0,2Z" transform="translate(-1379 -162.445)" fill="#494949"/>
  <path id="Path_15936-2" data-name="Path 15936" d="M1385.133,174H1382a1,1,0,0,1,0-2h3.133a1,1,0,0,1,0,2Z" transform="translate(-1371.438 -160.445)" fill="#494949"/>
  <path id="Path_15937" data-name="Path 15937" d="M1386.133,178H1380a1,1,0,0,1,0-2h6.133a1,1,0,0,1,0,2Z" transform="translate(-1379 -162.199)" fill="#494949"/>
</svg>
