<svg id="Notification-icon" xmlns="http://www.w3.org/2000/svg" width="19.5" height="26" viewBox="0 0 19.5 26">
  <path id="Path_3279" data-name="Path 3279" d="M82.688,17.875a1.627,1.627,0,0,1-1.625-1.625V10.563a7.323,7.323,0,0,0-5.156-6.991,2.437,2.437,0,1,0-4.31.006,7.394,7.394,0,0,0-5.159,7.055V16.25a1.627,1.627,0,0,1-1.625,1.625.813.813,0,0,0-.813.812v3.25a.813.813,0,0,0,.813.813h6.123a2.883,2.883,0,0,0-.029.406,2.844,2.844,0,1,0,5.658-.406h6.123a.813.813,0,0,0,.813-.812v-3.25A.813.813,0,0,0,82.688,17.875ZM73.75,1.625a.813.813,0,1,1-.813.813A.813.813,0,0,1,73.75,1.625Zm1.219,21.531A1.219,1.219,0,1,1,72.6,22.75h2.3A1.214,1.214,0,0,1,74.969,23.156Zm6.906-2.031H65.625V19.4a3.256,3.256,0,0,0,2.438-3.147V10.633A5.734,5.734,0,0,1,73.73,4.875h.021a5.688,5.688,0,0,1,5.687,5.688V16.25A3.256,3.256,0,0,0,81.875,19.4Z" transform="translate(-64)" fill="#707070"/>
</svg>
