<svg xmlns="http://www.w3.org/2000/svg" width="21.5" height="21.5" viewBox="0 0 21.5 21.5">
  <g id="Group_60044" data-name="Group 60044" transform="translate(-48.25 -271.25)">
    <path id="Path_49575" data-name="Path 49575" d="M12,1.25c4.915,0,7.382,0,9.066,1.684S22.75,7.085,22.75,12s0,7.382-1.684,9.066S16.915,22.75,12,22.75s-7.382,0-9.066-1.684S1.25,16.915,1.25,12s0-7.382,1.684-9.066S7.085,1.25,12,1.25Zm0,20c4.5,0,6.76,0,8.005-1.245S21.25,16.5,21.25,12s0-6.76-1.245-8.005S16.5,2.75,12,2.75s-6.76,0-8.005,1.245S2.75,7.5,2.75,12s0,6.76,1.245,8.005S7.5,21.25,12,21.25Z" transform="translate(47 270)" fill="#4a4a4a"/>
    <path id="Path_49576" data-name="Path 49576" d="M21.5,8.75H2.5a.75.75,0,0,1,0-1.5h19a.75.75,0,0,1,0,1.5Z" transform="translate(47 270)" fill="#4a4a4a"/>
    <path id="Path_49577" data-name="Path 49577" d="M7,8.75A.75.75,0,0,1,6.367,7.6l3.5-5.5a.75.75,0,1,1,1.265.805l-3.5,5.5A.75.75,0,0,1,7,8.75Z" transform="translate(47 270)" fill="#4a4a4a"/>
    <path id="Path_49578" data-name="Path 49578" d="M13.5,8.75A.75.75,0,0,1,12.867,7.6l3.5-5.5a.75.75,0,1,1,1.265.805l-3.5,5.5A.75.75,0,0,1,13.5,8.75Z" transform="translate(47 270)" fill="#4a4a4a"/>
    <path id="Path_49579" data-name="Path 49579" d="M10.865,10.75h0a5.46,5.46,0,0,1,2.556,1.2c1.453.937,2.329,1.5,2.329,2.545s-.877,1.608-2.329,2.545c-1.2.777-1.868,1.205-2.556,1.205a1.407,1.407,0,0,1-.766-.221c-.848-.539-.848-1.6-.848-3.529s0-2.99.848-3.529A1.407,1.407,0,0,1,10.865,10.75Zm.033,6a8.007,8.007,0,0,0,1.71-.963c.808-.521,1.643-1.06,1.643-1.285s-.835-.763-1.642-1.284a8.009,8.009,0,0,0-1.71-.963,1.555,1.555,0,0,0-.108.523c-.039.415-.039.993-.039,1.724s0,1.309.039,1.724A1.556,1.556,0,0,0,10.9,16.747Z" transform="translate(47 270)" fill="#4a4a4a"/>
  </g>
</svg>
